<?xml version="1.0" encoding="UTF-8" standalone="no"?><!DOCTYPE svg PUBLIC "-//W3C//DTD SVG 1.1//EN" "http://www.w3.org/Graphics/SVG/1.1/DTD/svg11.dtd"><svg width="100%" height="100%" viewBox="0 0 275 275" version="1.1" xmlns="http://www.w3.org/2000/svg" xmlns:xlink="http://www.w3.org/1999/xlink" xml:space="preserve" xmlns:serif="http://www.serif.com/" style="fill-rule:evenodd;clip-rule:evenodd;stroke-linecap:round;stroke-linejoin:round;stroke-miterlimit:1.5;"><g transform="translate(137.5, 137.5) scale(1.976) translate(-69.5, -63.5)"><g id="Alignment"><path d="M61,45.758c2.607,-0.922 5.412,-1.425 8.333,-1.425c9.246,0 17.326,5.03 21.651,12.5" style="fill:none;stroke:#fff;stroke-width:4.11px;"/><path d="M90.984,81.833c-4.325,7.471 -12.405,12.5 -21.651,12.5c-4.552,0 -8.822,-1.219 -12.5,-3.349" style="fill:none;stroke:#fff;stroke-width:4.11px;"/><path d="M112.037,52.667c2.021,5.166 3.13,10.788 3.13,16.666c-0,25.296 -20.538,45.834 -45.834,45.834c-25.296,-0 -45.833,-20.538 -45.833,-45.834c-0,-20.963 14.105,-38.658 33.333,-44.105" style="fill:none;stroke:#fff;stroke-width:4.11px;"/><path d="M30.481,123.5c-16.839,-12.105 -27.814,-31.864 -27.814,-54.167c-0,-5.754 0.73,-11.339 2.104,-16.666" style="fill:none;stroke:#fff;stroke-width:4.11px;"/><path d="M56.833,3.839c4.05,-0.77 8.228,-1.172 12.5,-1.172c36.795,-0 66.667,29.872 66.667,66.666c-0,14.925 -4.915,28.712 -13.214,39.827" style="fill:none;stroke:#fff;stroke-width:4.11px;"/></g></g></svg>