<?xml version="1.0" encoding="UTF-8" standalone="no"?><!DOCTYPE svg PUBLIC "-//W3C//DTD SVG 1.1//EN" "http://www.w3.org/Graphics/SVG/1.1/DTD/svg11.dtd"><svg width="100%" height="100%" viewBox="0 0 275 275" version="1.1" xmlns="http://www.w3.org/2000/svg" xmlns:xlink="http://www.w3.org/1999/xlink" xml:space="preserve" xmlns:serif="http://www.serif.com/" style="fill-rule:evenodd;clip-rule:evenodd;stroke-linejoin:round;stroke-miterlimit:2;"><g id="Direction"><path d="M136.247,4c0,0 -0.869,35.177 -1.54,80c-0.253,16.869 -0.474,35.099 -0.571,53.333c-0.038,7.139 -0.031,14.277 0.001,21.334c0.048,10.967 0.156,21.735 0.283,32c0.554,44.819 1.269,80 1.269,80c-0,0.907 0.737,1.644 1.644,1.644c0.908,0 1.645,-0.737 1.645,-1.644c-0,-0 0.715,-35.181 1.269,-80c0.126,-10.265 0.234,-21.033 0.283,-32c0.031,-7.057 0.039,-14.195 0.001,-21.334c-0.098,-18.234 -0.319,-36.464 -0.571,-53.333c-0.672,-44.823 -1.54,-80 -1.54,-80c-0,-0.599 -0.487,-1.086 -1.087,-1.086c-0.599,-0 -1.086,0.487 -1.086,1.086Z" style="fill:#fff;"/><path d="M4,138.42c-0,-0 35.177,0.868 80,1.54c16.869,0.252 35.099,0.473 53.333,0.571c7.139,0.038 14.277,0.03 21.334,-0.001c10.967,-0.049 21.735,-0.157 32,-0.283c44.819,-0.554 80,-1.269 80,-1.269c0.907,-0 1.644,-0.737 1.644,-1.645c0,-0.907 -0.737,-1.644 -1.644,-1.644c-0,-0 -35.181,-0.715 -80,-1.269c-10.265,-0.127 -21.033,-0.235 -32,-0.283c-7.057,-0.032 -14.195,-0.039 -21.334,-0.001c-18.234,0.097 -36.464,0.318 -53.333,0.571c-44.823,0.671 -80,1.54 -80,1.54c-0.599,0 -1.086,0.487 -1.086,1.086c-0,0.6 0.487,1.087 1.086,1.087Z" style="fill:#fff;"/><path d="M24.348,251.015c0,0 25.789,-25.231 58.495,-57.506c12.31,-12.149 25.599,-25.296 38.849,-38.483c5.188,-5.164 10.361,-10.341 15.467,-15.467c7.935,-7.967 15.708,-15.809 23.109,-23.291c32.312,-32.667 57.593,-58.407 57.593,-58.407c0.291,-0.291 0.291,-0.764 -0,-1.055c-0.291,-0.291 -0.764,-0.291 -1.055,-0c-0,-0 -25.74,25.281 -58.407,57.593c-7.482,7.401 -15.325,15.174 -23.291,23.109c-5.126,5.106 -10.304,10.279 -15.467,15.466c-13.187,13.25 -26.335,26.539 -38.483,38.85c-32.275,32.706 -57.506,58.494 -57.506,58.494c-0.193,0.193 -0.193,0.505 -0,0.697c0.192,0.192 0.504,0.192 0.696,0Z" style="fill:#fff;"/><path d="M70.317,71.016c-0,0 19.071,19.632 43.504,44.497c9.196,9.359 19.153,19.457 29.149,29.517c3.914,3.938 7.843,7.862 11.734,11.733c6.047,6.016 12.005,11.904 17.691,17.508c24.826,24.47 44.409,43.592 44.409,43.592c0.292,0.292 0.767,0.292 1.059,-0c0.292,-0.292 0.292,-0.767 -0,-1.059c-0,-0 -19.122,-19.583 -43.592,-44.409c-5.604,-5.686 -11.492,-11.644 -17.508,-17.691c-3.871,-3.891 -7.795,-7.82 -11.733,-11.734c-10.06,-9.996 -20.158,-19.953 -29.517,-29.149c-24.865,-24.433 -44.497,-43.504 -44.497,-43.504c-0.193,-0.193 -0.506,-0.193 -0.699,-0c-0.193,0.193 -0.193,0.506 -0,0.699Z" style="fill:#fff;"/></g></svg>