<?xml version="1.0" encoding="UTF-8" standalone="no"?><!DOCTYPE svg PUBLIC "-//W3C//DTD SVG 1.1//EN" "http://www.w3.org/Graphics/SVG/1.1/DTD/svg11.dtd"><svg width="100%" height="100%" viewBox="0 0 275 275" version="1.1" xmlns="http://www.w3.org/2000/svg" xmlns:xlink="http://www.w3.org/1999/xlink" xml:space="preserve" xmlns:serif="http://www.serif.com/" style="fill-rule:evenodd;clip-rule:evenodd;stroke-linecap:round;stroke-linejoin:round;stroke-miterlimit:1.5;"><g transform="translate(137.5, 137.5) scale(1.3095) translate(-96, -77.333)"><g id="Vision"><circle cx="96" cy="77.333" r="12.5" style="fill:#fff;stroke:#fff;stroke-width:2.93px;"/><circle cx="153.097" cy="41.917" r="6.25" style="fill:#fff;stroke:#fff;stroke-width:2.93px;"/><circle cx="40.349" cy="114.024" r="4.98" style="fill:#fff;stroke:#fff;stroke-width:2.93px;"/><path d="M138.816,3.742l-0.02,0.01c-0.419,0.198 -0.662,0.34 -1,0.543c-1.098,0.66 -1.5,0.994 -1.5,0.994c-0,-0 0.402,0.334 1.5,0.993c0.338,0.204 0.581,0.346 1,0.544l0.088,0.041l0.041,0.089c0.198,0.418 0.34,0.661 0.544,1c0.659,1.097 0.993,1.5 0.993,1.5c0,-0 0.334,-0.403 0.994,-1.5c0.203,-0.339 0.345,-0.582 0.543,-1l0.01,-0.021c0.039,-0.018 0.079,-0.037 0.12,-0.056c0.691,-0.327 1.03,-0.581 1.5,-0.885c0.768,-0.496 1,-0.705 1,-0.705c-0,-0 -0.232,-0.209 -1,-0.705c-0.47,-0.304 -0.809,-0.559 -1.5,-0.886c-0.018,-0.008 -0.035,-0.016 -0.052,-0.024c-0.008,-0.017 -0.016,-0.034 -0.024,-0.052c-0.327,-0.691 -0.582,-1.029 -0.885,-1.5c-0.497,-0.768 -0.706,-1 -0.706,-1c0,0 -0.209,0.232 -0.705,1c-0.304,0.471 -0.558,0.809 -0.885,1.5c-0.019,0.041 -0.038,0.081 -0.056,0.12Z" style="fill:#fff;"/><path d="M196.874,38.824l-0.041,0.019c-0.836,0.396 -1.323,0.68 -2,1.087c-2.194,1.319 -3,1.987 -3,1.987c0,-0 0.806,0.667 3,1.987c0.677,0.407 1.164,0.691 2,1.086l0.177,0.084l0.083,0.176c0.396,0.837 0.68,1.323 1.087,2c1.319,2.195 1.987,3 1.987,3c-0,-0 0.667,-0.805 1.987,-3c0.407,-0.677 0.691,-1.163 1.086,-2l0.02,-0.041c0.079,-0.036 0.159,-0.073 0.24,-0.111c1.382,-0.655 2.059,-1.163 3,-1.771c1.536,-0.992 2,-1.41 2,-1.41c-0,-0 -0.464,-0.419 -2,-1.411c-0.941,-0.608 -1.618,-1.116 -3,-1.77c-0.035,-0.017 -0.069,-0.033 -0.104,-0.049c-0.016,-0.034 -0.032,-0.069 -0.048,-0.104c-0.655,-1.381 -1.163,-2.059 -1.771,-3c-0.992,-1.535 -1.41,-2 -1.41,-2c-0,0 -0.419,0.465 -1.411,2c-0.608,0.941 -1.116,1.619 -1.77,3c-0.039,0.081 -0.076,0.161 -0.112,0.241Z" style="fill:#fff;"/><path d="M119.138,152.896l-0.02,0.009c-0.419,0.198 -0.662,0.34 -1,0.544c-1.098,0.659 -1.5,0.993 -1.5,0.993c-0,0 0.402,0.334 1.5,0.994c0.338,0.203 0.581,0.345 1,0.543l0.088,0.042l0.042,0.088c0.198,0.418 0.339,0.661 0.543,1c0.66,1.097 0.993,1.5 0.993,1.5c0,-0 0.334,-0.403 0.994,-1.5c0.203,-0.339 0.345,-0.582 0.543,-1l0.01,-0.021c0.04,-0.018 0.08,-0.036 0.12,-0.055c0.691,-0.327 1.03,-0.582 1.5,-0.885c0.768,-0.497 1,-0.706 1,-0.706c0,0 -0.232,-0.209 -1,-0.705c-0.47,-0.304 -0.809,-0.558 -1.5,-0.885c-0.017,-0.008 -0.035,-0.017 -0.052,-0.025c-0.008,-0.017 -0.016,-0.034 -0.024,-0.051c-0.327,-0.691 -0.581,-1.03 -0.885,-1.5c-0.496,-0.768 -0.706,-1 -0.706,-1c0,-0 -0.209,0.232 -0.705,1c-0.304,0.47 -0.558,0.809 -0.885,1.5c-0.019,0.04 -0.038,0.08 -0.056,0.12Z" style="fill:#fff;"/><path d="M2.687,150.787l-0.02,0.01c-0.419,0.197 -0.662,0.339 -1,0.543c-1.098,0.66 -1.5,0.993 -1.5,0.993c-0,0 0.402,0.334 1.5,0.994c0.338,0.203 0.581,0.345 1,0.543l0.088,0.042l0.042,0.088c0.197,0.418 0.339,0.662 0.543,1c0.66,1.097 0.993,1.5 0.993,1.5c0,-0 0.334,-0.403 0.994,-1.5c0.203,-0.338 0.345,-0.582 0.543,-1l0.01,-0.021c0.04,-0.018 0.08,-0.036 0.12,-0.055c0.691,-0.327 1.03,-0.581 1.5,-0.885c0.768,-0.497 1,-0.706 1,-0.706c-0,0 -0.232,-0.209 -1,-0.705c-0.47,-0.304 -0.809,-0.558 -1.5,-0.885c-0.017,-0.008 -0.035,-0.016 -0.052,-0.024c-0.008,-0.018 -0.016,-0.035 -0.024,-0.052c-0.327,-0.691 -0.581,-1.03 -0.885,-1.5c-0.497,-0.768 -0.706,-1 -0.706,-1c0,-0 -0.209,0.232 -0.705,1c-0.304,0.47 -0.558,0.809 -0.885,1.5c-0.019,0.04 -0.038,0.08 -0.056,0.12Z" style="fill:#fff;"/><path d="M62.057,19.017l-0.013,0.006c-0.262,0.125 -0.415,0.214 -0.627,0.341c-0.689,0.414 -0.941,0.624 -0.941,0.624c-0,-0 0.252,0.209 0.941,0.623c0.212,0.128 0.365,0.217 0.627,0.341l0.056,0.026l0.026,0.056c0.124,0.262 0.213,0.415 0.341,0.627c0.414,0.689 0.623,0.941 0.623,0.941c-0,0 0.209,-0.252 0.623,-0.941c0.128,-0.212 0.217,-0.365 0.341,-0.627l0.006,-0.013c0.025,-0.012 0.05,-0.023 0.076,-0.035c0.433,-0.205 0.646,-0.365 0.941,-0.556c0.482,-0.311 0.627,-0.442 0.627,-0.442c0,-0 -0.145,-0.131 -0.627,-0.443c-0.295,-0.19 -0.508,-0.35 -0.941,-0.555c-0.011,-0.005 -0.022,-0.01 -0.033,-0.015c-0.005,-0.011 -0.01,-0.022 -0.015,-0.033c-0.205,-0.434 -0.365,-0.646 -0.555,-0.941c-0.312,-0.482 -0.443,-0.628 -0.443,-0.628c-0,0 -0.131,0.146 -0.443,0.628c-0.19,0.295 -0.35,0.507 -0.555,0.941c-0.012,0.025 -0.024,0.05 -0.035,0.075Z" style="fill:#fff;"/><path d="M71.088,133.317l-0.013,0.006c-0.262,0.125 -0.415,0.214 -0.627,0.341c-0.689,0.414 -0.941,0.624 -0.941,0.624c-0,-0 0.252,0.209 0.941,0.623c0.212,0.128 0.365,0.217 0.627,0.341l0.056,0.026l0.026,0.056c0.124,0.262 0.213,0.415 0.341,0.627c0.414,0.689 0.623,0.941 0.623,0.941c0,0 0.21,-0.252 0.623,-0.941c0.128,-0.212 0.217,-0.365 0.341,-0.627l0.007,-0.013c0.024,-0.012 0.049,-0.023 0.075,-0.035c0.433,-0.205 0.646,-0.365 0.941,-0.556c0.482,-0.311 0.628,-0.442 0.628,-0.442c-0,-0 -0.146,-0.131 -0.628,-0.443c-0.295,-0.19 -0.508,-0.35 -0.941,-0.555c-0.011,-0.005 -0.022,-0.01 -0.033,-0.015c-0.005,-0.011 -0.01,-0.022 -0.015,-0.033c-0.205,-0.434 -0.365,-0.646 -0.555,-0.941c-0.312,-0.482 -0.443,-0.628 -0.443,-0.628c0,0 -0.131,0.146 -0.442,0.628c-0.191,0.295 -0.351,0.507 -0.556,0.941c-0.012,0.025 -0.023,0.05 -0.035,0.075Z" style="fill:#fff;"/><path d="M37.864,42.772l-0.006,0.003c-0.135,0.064 -0.214,0.11 -0.323,0.176c-0.354,0.212 -0.484,0.32 -0.484,0.32c0,0 0.13,0.108 0.484,0.321c0.109,0.065 0.188,0.111 0.323,0.175l0.028,0.013l0.014,0.029c0.064,0.135 0.109,0.213 0.175,0.323c0.213,0.354 0.321,0.484 0.321,0.484c-0,-0 0.107,-0.13 0.32,-0.484c0.066,-0.11 0.112,-0.188 0.175,-0.323l0.004,-0.007c0.012,-0.006 0.025,-0.012 0.038,-0.018c0.223,-0.105 0.333,-0.187 0.484,-0.285c0.248,-0.16 0.323,-0.228 0.323,-0.228c-0,0 -0.075,-0.067 -0.323,-0.227c-0.151,-0.099 -0.261,-0.181 -0.484,-0.286c-0.005,-0.003 -0.011,-0.005 -0.016,-0.008c-0.003,-0.005 -0.006,-0.011 -0.008,-0.017c-0.106,-0.223 -0.188,-0.332 -0.286,-0.484c-0.16,-0.247 -0.227,-0.322 -0.227,-0.322c-0,-0 -0.068,0.075 -0.228,0.322c-0.098,0.152 -0.18,0.261 -0.286,0.484c-0.006,0.013 -0.012,0.026 -0.018,0.039Z" style="fill:#fff;"/><path d="M125.918,59.988l-0.007,0.003c-0.135,0.064 -0.213,0.109 -0.323,0.175c-0.354,0.213 -0.484,0.321 -0.484,0.321c0,-0 0.13,0.107 0.484,0.32c0.11,0.066 0.188,0.112 0.323,0.176l0.029,0.013l0.013,0.028c0.064,0.135 0.11,0.214 0.175,0.323c0.213,0.354 0.321,0.484 0.321,0.484c-0,0 0.108,-0.13 0.32,-0.484c0.066,-0.109 0.112,-0.188 0.176,-0.323l0.003,-0.006c0.013,-0.006 0.026,-0.012 0.039,-0.018c0.223,-0.106 0.332,-0.188 0.484,-0.286c0.247,-0.16 0.322,-0.227 0.322,-0.227c0,-0 -0.075,-0.068 -0.322,-0.228c-0.152,-0.098 -0.261,-0.18 -0.484,-0.286c-0.006,-0.002 -0.012,-0.005 -0.017,-0.007c-0.003,-0.006 -0.005,-0.011 -0.008,-0.017c-0.105,-0.223 -0.187,-0.332 -0.286,-0.484c-0.16,-0.248 -0.227,-0.323 -0.227,-0.323c-0,0 -0.068,0.075 -0.228,0.323c-0.098,0.152 -0.18,0.261 -0.285,0.484c-0.006,0.013 -0.012,0.026 -0.018,0.039Z" style="fill:#fff;"/><path d="M175.589,116.432l-0.007,0.003c-0.135,0.064 -0.213,0.11 -0.322,0.176c-0.355,0.212 -0.484,0.32 -0.484,0.32c-0,0 0.129,0.108 0.484,0.321c0.109,0.065 0.187,0.111 0.322,0.175l0.029,0.013l0.013,0.029c0.064,0.135 0.11,0.213 0.175,0.323c0.213,0.354 0.321,0.484 0.321,0.484c-0,-0 0.108,-0.13 0.321,-0.484c0.065,-0.11 0.111,-0.188 0.175,-0.323l0.003,-0.007c0.013,-0.006 0.026,-0.012 0.039,-0.018c0.223,-0.105 0.332,-0.187 0.484,-0.285c0.248,-0.16 0.322,-0.228 0.322,-0.228c0,0 -0.074,-0.067 -0.322,-0.227c-0.152,-0.099 -0.261,-0.181 -0.484,-0.286c-0.006,-0.003 -0.011,-0.005 -0.017,-0.008c-0.003,-0.005 -0.005,-0.011 -0.008,-0.017c-0.105,-0.223 -0.187,-0.332 -0.285,-0.484c-0.161,-0.247 -0.228,-0.322 -0.228,-0.322c-0,-0 -0.067,0.075 -0.228,0.322c-0.098,0.152 -0.18,0.261 -0.285,0.484c-0.006,0.013 -0.012,0.026 -0.018,0.039Z" style="fill:#fff;"/><path d="M10.233,95.846l-0.005,0.002c-0.092,0.044 -0.146,0.075 -0.221,0.12c-0.242,0.146 -0.331,0.22 -0.331,0.22c-0,-0 0.089,0.074 0.331,0.219c0.075,0.045 0.129,0.077 0.221,0.121l0.02,0.009l0.009,0.019c0.044,0.093 0.075,0.146 0.12,0.221c0.146,0.243 0.22,0.332 0.22,0.332c-0,-0 0.073,-0.089 0.219,-0.332c0.045,-0.075 0.077,-0.128 0.12,-0.221l0.003,-0.004c0.008,-0.004 0.017,-0.008 0.026,-0.013c0.153,-0.072 0.228,-0.128 0.332,-0.195c0.169,-0.11 0.221,-0.156 0.221,-0.156c-0,-0 -0.052,-0.046 -0.221,-0.156c-0.104,-0.067 -0.179,-0.124 -0.332,-0.196c-0.004,-0.002 -0.008,-0.003 -0.011,-0.005c-0.002,-0.004 -0.004,-0.008 -0.006,-0.012c-0.072,-0.152 -0.128,-0.227 -0.195,-0.331c-0.11,-0.17 -0.156,-0.221 -0.156,-0.221c-0,-0 -0.047,0.051 -0.156,0.221c-0.067,0.104 -0.124,0.179 -0.196,0.331c-0.004,0.009 -0.008,0.018 -0.012,0.027Z" style="fill:#fff;"/><path d="M62.444,96.128l-0.005,0.002c-0.092,0.044 -0.146,0.075 -0.221,0.12c-0.242,0.146 -0.331,0.22 -0.331,0.22c-0,-0 0.089,0.074 0.331,0.22c0.075,0.045 0.129,0.076 0.221,0.12l0.02,0.009l0.009,0.019c0.044,0.093 0.075,0.147 0.12,0.222c0.146,0.242 0.22,0.331 0.22,0.331c-0,0 0.074,-0.089 0.219,-0.331c0.045,-0.075 0.077,-0.129 0.121,-0.222l0.002,-0.004c0.008,-0.004 0.017,-0.008 0.026,-0.012c0.153,-0.073 0.228,-0.129 0.332,-0.196c0.17,-0.11 0.221,-0.156 0.221,-0.156c-0,-0 -0.051,-0.046 -0.221,-0.156c-0.104,-0.067 -0.179,-0.123 -0.332,-0.196c-0.004,-0.001 -0.007,-0.003 -0.011,-0.005c-0.002,-0.004 -0.004,-0.008 -0.006,-0.011c-0.072,-0.153 -0.128,-0.228 -0.195,-0.332c-0.11,-0.17 -0.156,-0.221 -0.156,-0.221c-0,-0 -0.046,0.051 -0.156,0.221c-0.067,0.104 -0.124,0.179 -0.196,0.332c-0.004,0.009 -0.008,0.017 -0.012,0.026Z" style="fill:#fff;"/><circle cx="38.426" cy="19.195" r="3.125" style="fill:#fff;stroke:#fff;stroke-width:2.93px;"/></g></g></svg>