<?xml version="1.0" standalone="no"?>
<svg xmlns="http://www.w3.org/2000/svg" width="500" height="500"><defs><clipPath id="clip-path-dot-color"><rect x="2" y="167" width="15" height="15" transform="rotate(0,9.5,174.5)"/><rect x="2" y="182" width="15" height="15" transform="rotate(0,9.5,189.5)"/><rect x="2" y="242" width="15" height="15" transform="rotate(0,9.5,249.5)"/><rect x="2" y="272" width="15" height="15" transform="rotate(0,9.5,279.5)"/><rect x="2" y="302" width="15" height="15" transform="rotate(0,9.5,309.5)"/><rect x="2" y="347" width="15" height="15" transform="rotate(0,9.5,354.5)"/><rect x="17" y="137" width="15" height="15" transform="rotate(0,24.5,144.5)"/><rect x="17" y="242" width="15" height="15" transform="rotate(0,24.5,249.5)"/><rect x="17" y="272" width="15" height="15" transform="rotate(0,24.5,279.5)"/><rect x="17" y="287" width="15" height="15" transform="rotate(0,24.5,294.5)"/><rect x="17" y="302" width="15" height="15" transform="rotate(0,24.5,309.5)"/><rect x="17" y="362" width="15" height="15" transform="rotate(0,24.5,369.5)"/><rect x="32" y="122" width="15" height="15" transform="rotate(0,39.5,129.5)"/><rect x="32" y="167" width="15" height="15" transform="rotate(0,39.5,174.5)"/><rect x="32" y="197" width="15" height="15" transform="rotate(0,39.5,204.5)"/><rect x="32" y="212" width="15" height="15" transform="rotate(0,39.5,219.5)"/><rect x="32" y="257" width="15" height="15" transform="rotate(0,39.5,264.5)"/><rect x="32" y="272" width="15" height="15" transform="rotate(0,39.5,279.5)"/><rect x="32" y="287" width="15" height="15" transform="rotate(0,39.5,294.5)"/><rect x="32" y="317" width="15" height="15" transform="rotate(0,39.5,324.5)"/><rect x="32" y="347" width="15" height="15" transform="rotate(0,39.5,354.5)"/><rect x="32" y="362" width="15" height="15" transform="rotate(0,39.5,369.5)"/><rect x="47" y="152" width="15" height="15" transform="rotate(0,54.5,159.5)"/><rect x="47" y="167" width="15" height="15" transform="rotate(0,54.5,174.5)"/><rect x="47" y="182" width="15" height="15" transform="rotate(0,54.5,189.5)"/><rect x="47" y="197" width="15" height="15" transform="rotate(0,54.5,204.5)"/><rect x="47" y="212" width="15" height="15" transform="rotate(0,54.5,219.5)"/><rect x="47" y="242" width="15" height="15" transform="rotate(0,54.5,249.5)"/><rect x="47" y="257" width="15" height="15" transform="rotate(0,54.5,264.5)"/><rect x="47" y="317" width="15" height="15" transform="rotate(0,54.5,324.5)"/><rect x="47" y="332" width="15" height="15" transform="rotate(0,54.5,339.5)"/><rect x="47" y="347" width="15" height="15" transform="rotate(0,54.5,354.5)"/><rect x="62" y="122" width="15" height="15" transform="rotate(0,69.5,129.5)"/><rect x="62" y="137" width="15" height="15" transform="rotate(0,69.5,144.5)"/><rect x="62" y="167" width="15" height="15" transform="rotate(0,69.5,174.5)"/><rect x="62" y="197" width="15" height="15" transform="rotate(0,69.5,204.5)"/><rect x="62" y="242" width="15" height="15" transform="rotate(0,69.5,249.5)"/><rect x="62" y="257" width="15" height="15" transform="rotate(0,69.5,264.5)"/><rect x="62" y="287" width="15" height="15" transform="rotate(0,69.5,294.5)"/><rect x="62" y="317" width="15" height="15" transform="rotate(0,69.5,324.5)"/><rect x="62" y="332" width="15" height="15" transform="rotate(0,69.5,339.5)"/><rect x="77" y="122" width="15" height="15" transform="rotate(0,84.5,129.5)"/><rect x="77" y="137" width="15" height="15" transform="rotate(0,84.5,144.5)"/><rect x="77" y="167" width="15" height="15" transform="rotate(0,84.5,174.5)"/><rect x="77" y="227" width="15" height="15" transform="rotate(0,84.5,234.5)"/><rect x="77" y="257" width="15" height="15" transform="rotate(0,84.5,264.5)"/><rect x="77" y="302" width="15" height="15" transform="rotate(0,84.5,309.5)"/><rect x="77" y="317" width="15" height="15" transform="rotate(0,84.5,324.5)"/><rect x="77" y="332" width="15" height="15" transform="rotate(0,84.5,339.5)"/><rect x="77" y="347" width="15" height="15" transform="rotate(0,84.5,354.5)"/><rect x="77" y="362" width="15" height="15" transform="rotate(0,84.5,369.5)"/><rect x="92" y="122" width="15" height="15" transform="rotate(0,99.5,129.5)"/><rect x="92" y="152" width="15" height="15" transform="rotate(0,99.5,159.5)"/><rect x="92" y="182" width="15" height="15" transform="rotate(0,99.5,189.5)"/><rect x="92" y="212" width="15" height="15" transform="rotate(0,99.5,219.5)"/><rect x="92" y="242" width="15" height="15" transform="rotate(0,99.5,249.5)"/><rect x="92" y="272" width="15" height="15" transform="rotate(0,99.5,279.5)"/><rect x="92" y="302" width="15" height="15" transform="rotate(0,99.5,309.5)"/><rect x="92" y="332" width="15" height="15" transform="rotate(0,99.5,339.5)"/><rect x="92" y="362" width="15" height="15" transform="rotate(0,99.5,369.5)"/><rect x="107" y="137" width="15" height="15" transform="rotate(0,114.5,144.5)"/><rect x="107" y="152" width="15" height="15" transform="rotate(0,114.5,159.5)"/><rect x="107" y="197" width="15" height="15" transform="rotate(0,114.5,204.5)"/><rect x="107" y="212" width="15" height="15" transform="rotate(0,114.5,219.5)"/><rect x="107" y="227" width="15" height="15" transform="rotate(0,114.5,234.5)"/><rect x="107" y="242" width="15" height="15" transform="rotate(0,114.5,249.5)"/><rect x="107" y="257" width="15" height="15" transform="rotate(0,114.5,264.5)"/><rect x="107" y="272" width="15" height="15" transform="rotate(0,114.5,279.5)"/><rect x="107" y="287" width="15" height="15" transform="rotate(0,114.5,294.5)"/><rect x="107" y="302" width="15" height="15" transform="rotate(0,114.5,309.5)"/><rect x="107" y="317" width="15" height="15" transform="rotate(0,114.5,324.5)"/><rect x="107" y="362" width="15" height="15" transform="rotate(0,114.5,369.5)"/><rect x="122" y="17" width="15" height="15" transform="rotate(0,129.5,24.5)"/><rect x="122" y="62" width="15" height="15" transform="rotate(0,129.5,69.5)"/><rect x="122" y="92" width="15" height="15" transform="rotate(0,129.5,99.5)"/><rect x="122" y="122" width="15" height="15" transform="rotate(0,129.5,129.5)"/><rect x="122" y="137" width="15" height="15" transform="rotate(0,129.5,144.5)"/><rect x="122" y="197" width="15" height="15" transform="rotate(0,129.5,204.5)"/><rect x="122" y="227" width="15" height="15" transform="rotate(0,129.5,234.5)"/><rect x="122" y="257" width="15" height="15" transform="rotate(0,129.5,264.5)"/><rect x="122" y="317" width="15" height="15" transform="rotate(0,129.5,324.5)"/><rect x="122" y="332" width="15" height="15" transform="rotate(0,129.5,339.5)"/><rect x="122" y="347" width="15" height="15" transform="rotate(0,129.5,354.5)"/><rect x="122" y="362" width="15" height="15" transform="rotate(0,129.5,369.5)"/><rect x="122" y="377" width="15" height="15" transform="rotate(0,129.5,384.5)"/><rect x="122" y="407" width="15" height="15" transform="rotate(0,129.5,414.5)"/><rect x="122" y="422" width="15" height="15" transform="rotate(0,129.5,429.5)"/><rect x="122" y="452" width="15" height="15" transform="rotate(0,129.5,459.5)"/><rect x="137" y="2" width="15" height="15" transform="rotate(0,144.5,9.5)"/><rect x="137" y="17" width="15" height="15" transform="rotate(0,144.5,24.5)"/><rect x="137" y="32" width="15" height="15" transform="rotate(0,144.5,39.5)"/><rect x="137" y="47" width="15" height="15" transform="rotate(0,144.5,54.5)"/><rect x="137" y="62" width="15" height="15" transform="rotate(0,144.5,69.5)"/><rect x="137" y="122" width="15" height="15" transform="rotate(0,144.5,129.5)"/><rect x="137" y="152" width="15" height="15" transform="rotate(0,144.5,159.5)"/><rect x="137" y="182" width="15" height="15" transform="rotate(0,144.5,189.5)"/><rect x="137" y="212" width="15" height="15" transform="rotate(0,144.5,219.5)"/><rect x="137" y="227" width="15" height="15" transform="rotate(0,144.5,234.5)"/><rect x="137" y="257" width="15" height="15" transform="rotate(0,144.5,264.5)"/><rect x="137" y="272" width="15" height="15" transform="rotate(0,144.5,279.5)"/><rect x="137" y="317" width="15" height="15" transform="rotate(0,144.5,324.5)"/><rect x="137" y="347" width="15" height="15" transform="rotate(0,144.5,354.5)"/><rect x="137" y="377" width="15" height="15" transform="rotate(0,144.5,384.5)"/><rect x="137" y="437" width="15" height="15" transform="rotate(0,144.5,444.5)"/><rect x="137" y="452" width="15" height="15" transform="rotate(0,144.5,459.5)"/><rect x="137" y="482" width="15" height="15" transform="rotate(0,144.5,489.5)"/><rect x="152" y="32" width="15" height="15" transform="rotate(0,159.5,39.5)"/><rect x="152" y="62" width="15" height="15" transform="rotate(0,159.5,69.5)"/><rect x="152" y="77" width="15" height="15" transform="rotate(0,159.5,84.5)"/><rect x="152" y="92" width="15" height="15" transform="rotate(0,159.5,99.5)"/><rect x="152" y="152" width="15" height="15" transform="rotate(0,159.5,159.5)"/><rect x="152" y="182" width="15" height="15" transform="rotate(0,159.5,189.5)"/><rect x="152" y="197" width="15" height="15" transform="rotate(0,159.5,204.5)"/><rect x="152" y="212" width="15" height="15" transform="rotate(0,159.5,219.5)"/><rect x="152" y="227" width="15" height="15" transform="rotate(0,159.5,234.5)"/><rect x="152" y="272" width="15" height="15" transform="rotate(0,159.5,279.5)"/><rect x="152" y="302" width="15" height="15" transform="rotate(0,159.5,309.5)"/><rect x="152" y="347" width="15" height="15" transform="rotate(0,159.5,354.5)"/><rect x="152" y="362" width="15" height="15" transform="rotate(0,159.5,369.5)"/><rect x="152" y="377" width="15" height="15" transform="rotate(0,159.5,384.5)"/><rect x="152" y="437" width="15" height="15" transform="rotate(0,159.5,444.5)"/><rect x="152" y="467" width="15" height="15" transform="rotate(0,159.5,474.5)"/><rect x="167" y="2" width="15" height="15" transform="rotate(0,174.5,9.5)"/><rect x="167" y="17" width="15" height="15" transform="rotate(0,174.5,24.5)"/><rect x="167" y="47" width="15" height="15" transform="rotate(0,174.5,54.5)"/><rect x="167" y="77" width="15" height="15" transform="rotate(0,174.5,84.5)"/><rect x="167" y="152" width="15" height="15" transform="rotate(0,174.5,159.5)"/><rect x="167" y="167" width="15" height="15" transform="rotate(0,174.5,174.5)"/><rect x="167" y="182" width="15" height="15" transform="rotate(0,174.5,189.5)"/><rect x="167" y="212" width="15" height="15" transform="rotate(0,174.5,219.5)"/><rect x="167" y="227" width="15" height="15" transform="rotate(0,174.5,234.5)"/><rect x="167" y="242" width="15" height="15" transform="rotate(0,174.5,249.5)"/><rect x="167" y="287" width="15" height="15" transform="rotate(0,174.5,294.5)"/><rect x="167" y="302" width="15" height="15" transform="rotate(0,174.5,309.5)"/><rect x="167" y="332" width="15" height="15" transform="rotate(0,174.5,339.5)"/><rect x="167" y="347" width="15" height="15" transform="rotate(0,174.5,354.5)"/><rect x="167" y="467" width="15" height="15" transform="rotate(0,174.5,474.5)"/><rect x="167" y="482" width="15" height="15" transform="rotate(0,174.5,489.5)"/><rect x="182" y="2" width="15" height="15" transform="rotate(0,189.5,9.5)"/><rect x="182" y="32" width="15" height="15" transform="rotate(0,189.5,39.5)"/><rect x="182" y="47" width="15" height="15" transform="rotate(0,189.5,54.5)"/><rect x="182" y="92" width="15" height="15" transform="rotate(0,189.5,99.5)"/><rect x="182" y="122" width="15" height="15" transform="rotate(0,189.5,129.5)"/><rect x="182" y="137" width="15" height="15" transform="rotate(0,189.5,144.5)"/><rect x="182" y="152" width="15" height="15" transform="rotate(0,189.5,159.5)"/><rect x="182" y="167" width="15" height="15" transform="rotate(0,189.5,174.5)"/><rect x="182" y="197" width="15" height="15" transform="rotate(0,189.5,204.5)"/><rect x="182" y="212" width="15" height="15" transform="rotate(0,189.5,219.5)"/><rect x="182" y="332" width="15" height="15" transform="rotate(0,189.5,339.5)"/><rect x="182" y="377" width="15" height="15" transform="rotate(0,189.5,384.5)"/><rect x="182" y="392" width="15" height="15" transform="rotate(0,189.5,399.5)"/><rect x="182" y="407" width="15" height="15" transform="rotate(0,189.5,414.5)"/><rect x="182" y="422" width="15" height="15" transform="rotate(0,189.5,429.5)"/><rect x="182" y="437" width="15" height="15" transform="rotate(0,189.5,444.5)"/><rect x="182" y="482" width="15" height="15" transform="rotate(0,189.5,489.5)"/><rect x="197" y="17" width="15" height="15" transform="rotate(0,204.5,24.5)"/><rect x="197" y="32" width="15" height="15" transform="rotate(0,204.5,39.5)"/><rect x="197" y="47" width="15" height="15" transform="rotate(0,204.5,54.5)"/><rect x="197" y="107" width="15" height="15" transform="rotate(0,204.5,114.5)"/><rect x="197" y="122" width="15" height="15" transform="rotate(0,204.5,129.5)"/><rect x="197" y="137" width="15" height="15" transform="rotate(0,204.5,144.5)"/><rect x="197" y="167" width="15" height="15" transform="rotate(0,204.5,174.5)"/><rect x="197" y="182" width="15" height="15" transform="rotate(0,204.5,189.5)"/><rect x="197" y="212" width="15" height="15" transform="rotate(0,204.5,219.5)"/><rect x="197" y="227" width="15" height="15" transform="rotate(0,204.5,234.5)"/><rect x="197" y="242" width="15" height="15" transform="rotate(0,204.5,249.5)"/><rect x="197" y="257" width="15" height="15" transform="rotate(0,204.5,264.5)"/><rect x="197" y="272" width="15" height="15" transform="rotate(0,204.5,279.5)"/><rect x="197" y="287" width="15" height="15" transform="rotate(0,204.5,294.5)"/><rect x="197" y="302" width="15" height="15" transform="rotate(0,204.5,309.5)"/><rect x="197" y="362" width="15" height="15" transform="rotate(0,204.5,369.5)"/><rect x="197" y="407" width="15" height="15" transform="rotate(0,204.5,414.5)"/><rect x="197" y="452" width="15" height="15" transform="rotate(0,204.5,459.5)"/><rect x="212" y="2" width="15" height="15" transform="rotate(0,219.5,9.5)"/><rect x="212" y="17" width="15" height="15" transform="rotate(0,219.5,24.5)"/><rect x="212" y="32" width="15" height="15" transform="rotate(0,219.5,39.5)"/><rect x="212" y="77" width="15" height="15" transform="rotate(0,219.5,84.5)"/><rect x="212" y="92" width="15" height="15" transform="rotate(0,219.5,99.5)"/><rect x="212" y="107" width="15" height="15" transform="rotate(0,219.5,114.5)"/><rect x="212" y="137" width="15" height="15" transform="rotate(0,219.5,144.5)"/><rect x="212" y="152" width="15" height="15" transform="rotate(0,219.5,159.5)"/><rect x="212" y="167" width="15" height="15" transform="rotate(0,219.5,174.5)"/><rect x="212" y="197" width="15" height="15" transform="rotate(0,219.5,204.5)"/><rect x="212" y="212" width="15" height="15" transform="rotate(0,219.5,219.5)"/><rect x="212" y="227" width="15" height="15" transform="rotate(0,219.5,234.5)"/><rect x="212" y="302" width="15" height="15" transform="rotate(0,219.5,309.5)"/><rect x="212" y="332" width="15" height="15" transform="rotate(0,219.5,339.5)"/><rect x="212" y="347" width="15" height="15" transform="rotate(0,219.5,354.5)"/><rect x="212" y="362" width="15" height="15" transform="rotate(0,219.5,369.5)"/><rect x="212" y="377" width="15" height="15" transform="rotate(0,219.5,384.5)"/><rect x="212" y="392" width="15" height="15" transform="rotate(0,219.5,399.5)"/><rect x="212" y="422" width="15" height="15" transform="rotate(0,219.5,429.5)"/><rect x="212" y="437" width="15" height="15" transform="rotate(0,219.5,444.5)"/><rect x="212" y="452" width="15" height="15" transform="rotate(0,219.5,459.5)"/><rect x="212" y="467" width="15" height="15" transform="rotate(0,219.5,474.5)"/><rect x="227" y="17" width="15" height="15" transform="rotate(0,234.5,24.5)"/><rect x="227" y="32" width="15" height="15" transform="rotate(0,234.5,39.5)"/><rect x="227" y="77" width="15" height="15" transform="rotate(0,234.5,84.5)"/><rect x="227" y="107" width="15" height="15" transform="rotate(0,234.5,114.5)"/><rect x="227" y="122" width="15" height="15" transform="rotate(0,234.5,129.5)"/><rect x="227" y="137" width="15" height="15" transform="rotate(0,234.5,144.5)"/><rect x="227" y="152" width="15" height="15" transform="rotate(0,234.5,159.5)"/><rect x="227" y="167" width="15" height="15" transform="rotate(0,234.5,174.5)"/><rect x="227" y="197" width="15" height="15" transform="rotate(0,234.5,204.5)"/><rect x="227" y="257" width="15" height="15" transform="rotate(0,234.5,264.5)"/><rect x="227" y="317" width="15" height="15" transform="rotate(0,234.5,324.5)"/><rect x="227" y="332" width="15" height="15" transform="rotate(0,234.5,339.5)"/><rect x="227" y="347" width="15" height="15" transform="rotate(0,234.5,354.5)"/><rect x="227" y="377" width="15" height="15" transform="rotate(0,234.5,384.5)"/><rect x="227" y="392" width="15" height="15" transform="rotate(0,234.5,399.5)"/><rect x="227" y="422" width="15" height="15" transform="rotate(0,234.5,429.5)"/><rect x="242" y="2" width="15" height="15" transform="rotate(0,249.5,9.5)"/><rect x="242" y="17" width="15" height="15" transform="rotate(0,249.5,24.5)"/><rect x="242" y="32" width="15" height="15" transform="rotate(0,249.5,39.5)"/><rect x="242" y="47" width="15" height="15" transform="rotate(0,249.5,54.5)"/><rect x="242" y="92" width="15" height="15" transform="rotate(0,249.5,99.5)"/><rect x="242" y="122" width="15" height="15" transform="rotate(0,249.5,129.5)"/><rect x="242" y="137" width="15" height="15" transform="rotate(0,249.5,144.5)"/><rect x="242" y="152" width="15" height="15" transform="rotate(0,249.5,159.5)"/><rect x="242" y="167" width="15" height="15" transform="rotate(0,249.5,174.5)"/><rect x="242" y="197" width="15" height="15" transform="rotate(0,249.5,204.5)"/><rect x="242" y="227" width="15" height="15" transform="rotate(0,249.5,234.5)"/><rect x="242" y="242" width="15" height="15" transform="rotate(0,249.5,249.5)"/><rect x="242" y="257" width="15" height="15" transform="rotate(0,249.5,264.5)"/><rect x="242" y="287" width="15" height="15" transform="rotate(0,249.5,294.5)"/><rect x="242" y="302" width="15" height="15" transform="rotate(0,249.5,309.5)"/><rect x="242" y="317" width="15" height="15" transform="rotate(0,249.5,324.5)"/><rect x="242" y="332" width="15" height="15" transform="rotate(0,249.5,339.5)"/><rect x="242" y="362" width="15" height="15" transform="rotate(0,249.5,369.5)"/><rect x="242" y="392" width="15" height="15" transform="rotate(0,249.5,399.5)"/><rect x="242" y="422" width="15" height="15" transform="rotate(0,249.5,429.5)"/><rect x="242" y="467" width="15" height="15" transform="rotate(0,249.5,474.5)"/><rect x="257" y="62" width="15" height="15" transform="rotate(0,264.5,69.5)"/><rect x="257" y="77" width="15" height="15" transform="rotate(0,264.5,84.5)"/><rect x="257" y="122" width="15" height="15" transform="rotate(0,264.5,129.5)"/><rect x="257" y="167" width="15" height="15" transform="rotate(0,264.5,174.5)"/><rect x="257" y="182" width="15" height="15" transform="rotate(0,264.5,189.5)"/><rect x="257" y="197" width="15" height="15" transform="rotate(0,264.5,204.5)"/><rect x="257" y="272" width="15" height="15" transform="rotate(0,264.5,279.5)"/><rect x="257" y="302" width="15" height="15" transform="rotate(0,264.5,309.5)"/><rect x="257" y="347" width="15" height="15" transform="rotate(0,264.5,354.5)"/><rect x="257" y="377" width="15" height="15" transform="rotate(0,264.5,384.5)"/><rect x="257" y="437" width="15" height="15" transform="rotate(0,264.5,444.5)"/><rect x="257" y="452" width="15" height="15" transform="rotate(0,264.5,459.5)"/><rect x="257" y="467" width="15" height="15" transform="rotate(0,264.5,474.5)"/><rect x="272" y="2" width="15" height="15" transform="rotate(0,279.5,9.5)"/><rect x="272" y="62" width="15" height="15" transform="rotate(0,279.5,69.5)"/><rect x="272" y="77" width="15" height="15" transform="rotate(0,279.5,84.5)"/><rect x="272" y="92" width="15" height="15" transform="rotate(0,279.5,99.5)"/><rect x="272" y="107" width="15" height="15" transform="rotate(0,279.5,114.5)"/><rect x="272" y="122" width="15" height="15" transform="rotate(0,279.5,129.5)"/><rect x="272" y="137" width="15" height="15" transform="rotate(0,279.5,144.5)"/><rect x="272" y="152" width="15" height="15" transform="rotate(0,279.5,159.5)"/><rect x="272" y="167" width="15" height="15" transform="rotate(0,279.5,174.5)"/><rect x="272" y="212" width="15" height="15" transform="rotate(0,279.5,219.5)"/><rect x="272" y="227" width="15" height="15" transform="rotate(0,279.5,234.5)"/><rect x="272" y="272" width="15" height="15" transform="rotate(0,279.5,279.5)"/><rect x="272" y="302" width="15" height="15" transform="rotate(0,279.5,309.5)"/><rect x="272" y="317" width="15" height="15" transform="rotate(0,279.5,324.5)"/><rect x="272" y="332" width="15" height="15" transform="rotate(0,279.5,339.5)"/><rect x="272" y="347" width="15" height="15" transform="rotate(0,279.5,354.5)"/><rect x="272" y="392" width="15" height="15" transform="rotate(0,279.5,399.5)"/><rect x="272" y="407" width="15" height="15" transform="rotate(0,279.5,414.5)"/><rect x="272" y="437" width="15" height="15" transform="rotate(0,279.5,444.5)"/><rect x="272" y="467" width="15" height="15" transform="rotate(0,279.5,474.5)"/><rect x="287" y="2" width="15" height="15" transform="rotate(0,294.5,9.5)"/><rect x="287" y="17" width="15" height="15" transform="rotate(0,294.5,24.5)"/><rect x="287" y="47" width="15" height="15" transform="rotate(0,294.5,54.5)"/><rect x="287" y="62" width="15" height="15" transform="rotate(0,294.5,69.5)"/><rect x="287" y="107" width="15" height="15" transform="rotate(0,294.5,114.5)"/><rect x="287" y="122" width="15" height="15" transform="rotate(0,294.5,129.5)"/><rect x="287" y="137" width="15" height="15" transform="rotate(0,294.5,144.5)"/><rect x="287" y="152" width="15" height="15" transform="rotate(0,294.5,159.5)"/><rect x="287" y="182" width="15" height="15" transform="rotate(0,294.5,189.5)"/><rect x="287" y="197" width="15" height="15" transform="rotate(0,294.5,204.5)"/><rect x="287" y="212" width="15" height="15" transform="rotate(0,294.5,219.5)"/><rect x="287" y="257" width="15" height="15" transform="rotate(0,294.5,264.5)"/><rect x="287" y="272" width="15" height="15" transform="rotate(0,294.5,279.5)"/><rect x="287" y="287" width="15" height="15" transform="rotate(0,294.5,294.5)"/><rect x="287" y="302" width="15" height="15" transform="rotate(0,294.5,309.5)"/><rect x="287" y="317" width="15" height="15" transform="rotate(0,294.5,324.5)"/><rect x="287" y="362" width="15" height="15" transform="rotate(0,294.5,369.5)"/><rect x="287" y="407" width="15" height="15" transform="rotate(0,294.5,414.5)"/><rect x="302" y="2" width="15" height="15" transform="rotate(0,309.5,9.5)"/><rect x="302" y="62" width="15" height="15" transform="rotate(0,309.5,69.5)"/><rect x="302" y="92" width="15" height="15" transform="rotate(0,309.5,99.5)"/><rect x="302" y="167" width="15" height="15" transform="rotate(0,309.5,174.5)"/><rect x="302" y="182" width="15" height="15" transform="rotate(0,309.5,189.5)"/><rect x="302" y="197" width="15" height="15" transform="rotate(0,309.5,204.5)"/><rect x="302" y="212" width="15" height="15" transform="rotate(0,309.5,219.5)"/><rect x="302" y="242" width="15" height="15" transform="rotate(0,309.5,249.5)"/><rect x="302" y="272" width="15" height="15" transform="rotate(0,309.5,279.5)"/><rect x="302" y="302" width="15" height="15" transform="rotate(0,309.5,309.5)"/><rect x="302" y="347" width="15" height="15" transform="rotate(0,309.5,354.5)"/><rect x="302" y="362" width="15" height="15" transform="rotate(0,309.5,369.5)"/><rect x="302" y="392" width="15" height="15" transform="rotate(0,309.5,399.5)"/><rect x="302" y="407" width="15" height="15" transform="rotate(0,309.5,414.5)"/><rect x="302" y="422" width="15" height="15" transform="rotate(0,309.5,429.5)"/><rect x="302" y="437" width="15" height="15" transform="rotate(0,309.5,444.5)"/><rect x="302" y="467" width="15" height="15" transform="rotate(0,309.5,474.5)"/><rect x="302" y="482" width="15" height="15" transform="rotate(0,309.5,489.5)"/><rect x="317" y="2" width="15" height="15" transform="rotate(0,324.5,9.5)"/><rect x="317" y="17" width="15" height="15" transform="rotate(0,324.5,24.5)"/><rect x="317" y="32" width="15" height="15" transform="rotate(0,324.5,39.5)"/><rect x="317" y="47" width="15" height="15" transform="rotate(0,324.5,54.5)"/><rect x="317" y="62" width="15" height="15" transform="rotate(0,324.5,69.5)"/><rect x="317" y="77" width="15" height="15" transform="rotate(0,324.5,84.5)"/><rect x="317" y="137" width="15" height="15" transform="rotate(0,324.5,144.5)"/><rect x="317" y="152" width="15" height="15" transform="rotate(0,324.5,159.5)"/><rect x="317" y="182" width="15" height="15" transform="rotate(0,324.5,189.5)"/><rect x="317" y="257" width="15" height="15" transform="rotate(0,324.5,264.5)"/><rect x="317" y="272" width="15" height="15" transform="rotate(0,324.5,279.5)"/><rect x="317" y="287" width="15" height="15" transform="rotate(0,324.5,294.5)"/><rect x="317" y="332" width="15" height="15" transform="rotate(0,324.5,339.5)"/><rect x="317" y="377" width="15" height="15" transform="rotate(0,324.5,384.5)"/><rect x="317" y="437" width="15" height="15" transform="rotate(0,324.5,444.5)"/><rect x="317" y="467" width="15" height="15" transform="rotate(0,324.5,474.5)"/><rect x="332" y="47" width="15" height="15" transform="rotate(0,339.5,54.5)"/><rect x="332" y="92" width="15" height="15" transform="rotate(0,339.5,99.5)"/><rect x="332" y="122" width="15" height="15" transform="rotate(0,339.5,129.5)"/><rect x="332" y="152" width="15" height="15" transform="rotate(0,339.5,159.5)"/><rect x="332" y="197" width="15" height="15" transform="rotate(0,339.5,204.5)"/><rect x="332" y="212" width="15" height="15" transform="rotate(0,339.5,219.5)"/><rect x="332" y="242" width="15" height="15" transform="rotate(0,339.5,249.5)"/><rect x="332" y="257" width="15" height="15" transform="rotate(0,339.5,264.5)"/><rect x="332" y="287" width="15" height="15" transform="rotate(0,339.5,294.5)"/><rect x="332" y="317" width="15" height="15" transform="rotate(0,339.5,324.5)"/><rect x="332" y="377" width="15" height="15" transform="rotate(0,339.5,384.5)"/><rect x="332" y="422" width="15" height="15" transform="rotate(0,339.5,429.5)"/><rect x="332" y="467" width="15" height="15" transform="rotate(0,339.5,474.5)"/><rect x="347" y="47" width="15" height="15" transform="rotate(0,354.5,54.5)"/><rect x="347" y="62" width="15" height="15" transform="rotate(0,354.5,69.5)"/><rect x="347" y="77" width="15" height="15" transform="rotate(0,354.5,84.5)"/><rect x="347" y="137" width="15" height="15" transform="rotate(0,354.5,144.5)"/><rect x="347" y="152" width="15" height="15" transform="rotate(0,354.5,159.5)"/><rect x="347" y="182" width="15" height="15" transform="rotate(0,354.5,189.5)"/><rect x="347" y="242" width="15" height="15" transform="rotate(0,354.5,249.5)"/><rect x="347" y="287" width="15" height="15" transform="rotate(0,354.5,294.5)"/><rect x="347" y="302" width="15" height="15" transform="rotate(0,354.5,309.5)"/><rect x="347" y="317" width="15" height="15" transform="rotate(0,354.5,324.5)"/><rect x="347" y="362" width="15" height="15" transform="rotate(0,354.5,369.5)"/><rect x="347" y="377" width="15" height="15" transform="rotate(0,354.5,384.5)"/><rect x="347" y="392" width="15" height="15" transform="rotate(0,354.5,399.5)"/><rect x="347" y="467" width="15" height="15" transform="rotate(0,354.5,474.5)"/><rect x="362" y="2" width="15" height="15" transform="rotate(0,369.5,9.5)"/><rect x="362" y="17" width="15" height="15" transform="rotate(0,369.5,24.5)"/><rect x="362" y="32" width="15" height="15" transform="rotate(0,369.5,39.5)"/><rect x="362" y="77" width="15" height="15" transform="rotate(0,369.5,84.5)"/><rect x="362" y="92" width="15" height="15" transform="rotate(0,369.5,99.5)"/><rect x="362" y="137" width="15" height="15" transform="rotate(0,369.5,144.5)"/><rect x="362" y="152" width="15" height="15" transform="rotate(0,369.5,159.5)"/><rect x="362" y="212" width="15" height="15" transform="rotate(0,369.5,219.5)"/><rect x="362" y="227" width="15" height="15" transform="rotate(0,369.5,234.5)"/><rect x="362" y="257" width="15" height="15" transform="rotate(0,369.5,264.5)"/><rect x="362" y="272" width="15" height="15" transform="rotate(0,369.5,279.5)"/><rect x="362" y="302" width="15" height="15" transform="rotate(0,369.5,309.5)"/><rect x="362" y="317" width="15" height="15" transform="rotate(0,369.5,324.5)"/><rect x="362" y="347" width="15" height="15" transform="rotate(0,369.5,354.5)"/><rect x="362" y="362" width="15" height="15" transform="rotate(0,369.5,369.5)"/><rect x="362" y="377" width="15" height="15" transform="rotate(0,369.5,384.5)"/><rect x="362" y="392" width="15" height="15" transform="rotate(0,369.5,399.5)"/><rect x="362" y="407" width="15" height="15" transform="rotate(0,369.5,414.5)"/><rect x="362" y="422" width="15" height="15" transform="rotate(0,369.5,429.5)"/><rect x="362" y="437" width="15" height="15" transform="rotate(0,369.5,444.5)"/><rect x="362" y="467" width="15" height="15" transform="rotate(0,369.5,474.5)"/><rect x="362" y="482" width="15" height="15" transform="rotate(0,369.5,489.5)"/><rect x="377" y="122" width="15" height="15" transform="rotate(0,384.5,129.5)"/><rect x="377" y="167" width="15" height="15" transform="rotate(0,384.5,174.5)"/><rect x="377" y="197" width="15" height="15" transform="rotate(0,384.5,204.5)"/><rect x="377" y="257" width="15" height="15" transform="rotate(0,384.5,264.5)"/><rect x="377" y="317" width="15" height="15" transform="rotate(0,384.5,324.5)"/><rect x="377" y="362" width="15" height="15" transform="rotate(0,384.5,369.5)"/><rect x="377" y="422" width="15" height="15" transform="rotate(0,384.5,429.5)"/><rect x="377" y="452" width="15" height="15" transform="rotate(0,384.5,459.5)"/><rect x="392" y="137" width="15" height="15" transform="rotate(0,399.5,144.5)"/><rect x="392" y="182" width="15" height="15" transform="rotate(0,399.5,189.5)"/><rect x="392" y="227" width="15" height="15" transform="rotate(0,399.5,234.5)"/><rect x="392" y="257" width="15" height="15" transform="rotate(0,399.5,264.5)"/><rect x="392" y="272" width="15" height="15" transform="rotate(0,399.5,279.5)"/><rect x="392" y="302" width="15" height="15" transform="rotate(0,399.5,309.5)"/><rect x="392" y="362" width="15" height="15" transform="rotate(0,399.5,369.5)"/><rect x="392" y="392" width="15" height="15" transform="rotate(0,399.5,399.5)"/><rect x="392" y="422" width="15" height="15" transform="rotate(0,399.5,429.5)"/><rect x="392" y="437" width="15" height="15" transform="rotate(0,399.5,444.5)"/><rect x="407" y="137" width="15" height="15" transform="rotate(0,414.5,144.5)"/><rect x="407" y="152" width="15" height="15" transform="rotate(0,414.5,159.5)"/><rect x="407" y="167" width="15" height="15" transform="rotate(0,414.5,174.5)"/><rect x="407" y="197" width="15" height="15" transform="rotate(0,414.5,204.5)"/><rect x="407" y="227" width="15" height="15" transform="rotate(0,414.5,234.5)"/><rect x="407" y="242" width="15" height="15" transform="rotate(0,414.5,249.5)"/><rect x="407" y="257" width="15" height="15" transform="rotate(0,414.5,264.5)"/><rect x="407" y="332" width="15" height="15" transform="rotate(0,414.5,339.5)"/><rect x="407" y="347" width="15" height="15" transform="rotate(0,414.5,354.5)"/><rect x="407" y="362" width="15" height="15" transform="rotate(0,414.5,369.5)"/><rect x="407" y="422" width="15" height="15" transform="rotate(0,414.5,429.5)"/><rect x="407" y="467" width="15" height="15" transform="rotate(0,414.5,474.5)"/><rect x="422" y="122" width="15" height="15" transform="rotate(0,429.5,129.5)"/><rect x="422" y="152" width="15" height="15" transform="rotate(0,429.5,159.5)"/><rect x="422" y="167" width="15" height="15" transform="rotate(0,429.5,174.5)"/><rect x="422" y="182" width="15" height="15" transform="rotate(0,429.5,189.5)"/><rect x="422" y="227" width="15" height="15" transform="rotate(0,429.5,234.5)"/><rect x="422" y="332" width="15" height="15" transform="rotate(0,429.5,339.5)"/><rect x="422" y="362" width="15" height="15" transform="rotate(0,429.5,369.5)"/><rect x="422" y="377" width="15" height="15" transform="rotate(0,429.5,384.5)"/><rect x="422" y="392" width="15" height="15" transform="rotate(0,429.5,399.5)"/><rect x="422" y="407" width="15" height="15" transform="rotate(0,429.5,414.5)"/><rect x="422" y="422" width="15" height="15" transform="rotate(0,429.5,429.5)"/><rect x="422" y="437" width="15" height="15" transform="rotate(0,429.5,444.5)"/><rect x="422" y="482" width="15" height="15" transform="rotate(0,429.5,489.5)"/><rect x="437" y="137" width="15" height="15" transform="rotate(0,444.5,144.5)"/><rect x="437" y="152" width="15" height="15" transform="rotate(0,444.5,159.5)"/><rect x="437" y="167" width="15" height="15" transform="rotate(0,444.5,174.5)"/><rect x="437" y="197" width="15" height="15" transform="rotate(0,444.5,204.5)"/><rect x="437" y="212" width="15" height="15" transform="rotate(0,444.5,219.5)"/><rect x="437" y="227" width="15" height="15" transform="rotate(0,444.5,234.5)"/><rect x="437" y="272" width="15" height="15" transform="rotate(0,444.5,279.5)"/><rect x="437" y="287" width="15" height="15" transform="rotate(0,444.5,294.5)"/><rect x="437" y="302" width="15" height="15" transform="rotate(0,444.5,309.5)"/><rect x="437" y="317" width="15" height="15" transform="rotate(0,444.5,324.5)"/><rect x="437" y="347" width="15" height="15" transform="rotate(0,444.5,354.5)"/><rect x="437" y="392" width="15" height="15" transform="rotate(0,444.5,399.5)"/><rect x="437" y="407" width="15" height="15" transform="rotate(0,444.5,414.5)"/><rect x="437" y="422" width="15" height="15" transform="rotate(0,444.5,429.5)"/><rect x="437" y="467" width="15" height="15" transform="rotate(0,444.5,474.5)"/><rect x="452" y="152" width="15" height="15" transform="rotate(0,459.5,159.5)"/><rect x="452" y="167" width="15" height="15" transform="rotate(0,459.5,174.5)"/><rect x="452" y="197" width="15" height="15" transform="rotate(0,459.5,204.5)"/><rect x="452" y="212" width="15" height="15" transform="rotate(0,459.5,219.5)"/><rect x="452" y="242" width="15" height="15" transform="rotate(0,459.5,249.5)"/><rect x="452" y="302" width="15" height="15" transform="rotate(0,459.5,309.5)"/><rect x="452" y="362" width="15" height="15" transform="rotate(0,459.5,369.5)"/><rect x="452" y="392" width="15" height="15" transform="rotate(0,459.5,399.5)"/><rect x="452" y="407" width="15" height="15" transform="rotate(0,459.5,414.5)"/><rect x="452" y="422" width="15" height="15" transform="rotate(0,459.5,429.5)"/><rect x="452" y="437" width="15" height="15" transform="rotate(0,459.5,444.5)"/><rect x="452" y="452" width="15" height="15" transform="rotate(0,459.5,459.5)"/><rect x="467" y="122" width="15" height="15" transform="rotate(0,474.5,129.5)"/><rect x="467" y="137" width="15" height="15" transform="rotate(0,474.5,144.5)"/><rect x="467" y="152" width="15" height="15" transform="rotate(0,474.5,159.5)"/><rect x="467" y="182" width="15" height="15" transform="rotate(0,474.5,189.5)"/><rect x="467" y="197" width="15" height="15" transform="rotate(0,474.5,204.5)"/><rect x="467" y="212" width="15" height="15" transform="rotate(0,474.5,219.5)"/><rect x="467" y="317" width="15" height="15" transform="rotate(0,474.5,324.5)"/><rect x="467" y="332" width="15" height="15" transform="rotate(0,474.5,339.5)"/><rect x="467" y="347" width="15" height="15" transform="rotate(0,474.5,354.5)"/><rect x="467" y="377" width="15" height="15" transform="rotate(0,474.5,384.5)"/><rect x="467" y="392" width="15" height="15" transform="rotate(0,474.5,399.5)"/><rect x="482" y="182" width="15" height="15" transform="rotate(0,489.5,189.5)"/><rect x="482" y="197" width="15" height="15" transform="rotate(0,489.5,204.5)"/><rect x="482" y="242" width="15" height="15" transform="rotate(0,489.5,249.5)"/><rect x="482" y="257" width="15" height="15" transform="rotate(0,489.5,264.5)"/><rect x="482" y="272" width="15" height="15" transform="rotate(0,489.5,279.5)"/><rect x="482" y="287" width="15" height="15" transform="rotate(0,489.5,294.5)"/><rect x="482" y="302" width="15" height="15" transform="rotate(0,489.5,309.5)"/><rect x="482" y="317" width="15" height="15" transform="rotate(0,489.5,324.5)"/><rect x="482" y="332" width="15" height="15" transform="rotate(0,489.5,339.5)"/><rect x="482" y="362" width="15" height="15" transform="rotate(0,489.5,369.5)"/><rect x="482" y="392" width="15" height="15" transform="rotate(0,489.5,399.5)"/><rect x="482" y="482" width="15" height="15" transform="rotate(0,489.5,489.5)"/><path clip-rule="evenodd" d="M 2 2v 105h 105v -105zM 17 17h 75v 75h -75z" transform="rotate(0,54.5,54.5)"/><rect x="32" y="32" width="45" height="45" transform="rotate(0,54.5,54.5)"/><path clip-rule="evenodd" d="M 392 2v 105h 105v -105zM 407 17h 75v 75h -75z" transform="rotate(90,444.5,54.5)"/><rect x="422" y="32" width="45" height="45" transform="rotate(90,444.5,54.5)"/><path clip-rule="evenodd" d="M 2 392v 105h 105v -105zM 17 407h 75v 75h -75z" transform="rotate(-90,54.5,444.5)"/><rect x="32" y="422" width="45" height="45" transform="rotate(-90,54.5,444.5)"/></clipPath></defs><rect x="0" y="0" height="500" width="500" clip-path="url('#clip-path-background-color')" fill="#fff"/><rect x="0" y="0" height="500" width="500" clip-path="url('#clip-path-dot-color')" fill="#000000"/></svg>