<?xml version="1.0" encoding="UTF-8" standalone="no"?>
<!DOCTYPE svg PUBLIC "-//W3C//DTD SVG 1.1//EN" "http://www.w3.org/Graphics/SVG/1.1/DTD/svg11.dtd">
<svg width="100%" height="100%" viewBox="0 0 400 400" version="1.1" xmlns="http://www.w3.org/2000/svg" xmlns:xlink="http://www.w3.org/1999/xlink" xml:space="preserve" xmlns:serif="http://www.serif.com/" style="fill-rule:evenodd;clip-rule:evenodd;stroke-linejoin:round;stroke-miterlimit:2;">
    <g transform="matrix(1,0,0,1,-500,0)">
        <g id="White--Transparent" serif:id="White, Transparent" transform="matrix(1.08366,0,0,1.01265,45.9155,-5.05923)">
            <rect x="419.029" y="4.996" width="369.12" height="395.004" style="fill:none;"/>
            <g transform="matrix(2.97431,0,0,3.18295,245.184,-114.205)">
                <circle cx="120.5" cy="99.5" r="60.5" style="fill:none;"/>
                <clipPath id="_clip1">
                    <circle cx="120.5" cy="99.5" r="60.5"/>
                </clipPath>
                <g clip-path="url(#_clip1)">
                    <g id="Text" transform="matrix(0.672222,0,0,0.672222,48.3982,37.6181)">
                        <g transform="matrix(83.7628,0,0,83.7628,29,121)">
                            <path d="M0.174,-0.667L0.048,-0.667L0.322,-0.171L0.385,-0.286L0.174,-0.667ZM0.659,-0.667L0.417,-0.229L0.353,-0.114L0.417,-0L0.48,-0.114L0.786,-0.667L0.659,-0.667Z" style="fill:white;fill-rule:nonzero;"/>
                        </g>
                        <g transform="matrix(83.7628,0,0,83.7628,98.7744,121)">
                            <path d="M0.047,-0.107L0.047,-0.56L0.143,-0.666L0.143,0L0.047,-0.107ZM0.143,-0L0.047,-0.107L0.047,-0.56L0.14,-0.662L0.143,-0ZM0.143,-0.666L0.143,0.001L0.047,-0.107L0.047,-0.56L0.143,-0.666Z" style="fill:white;fill-rule:nonzero;"/>
                        </g>
                        <g transform="matrix(83.7628,0,0,83.7628,114.773,121)">
                            <path d="M0.07,-0L0.196,-0L0.407,-0.381L0.344,-0.496L0.07,-0ZM0.502,-0.552L0.439,-0.667L0.439,-0.667L0.376,-0.552L0.681,0L0.808,0L0.502,-0.552Z" style="fill:white;fill-rule:nonzero;stroke:white;stroke-width:0.01px;"/>
                        </g>
                    </g>
                </g>
                <path d="M93.723,153.758C92.068,152.941 90.454,152.051 88.886,151.094C84.814,148.606 81.046,145.667 77.673,142.327C66.632,131.394 59.769,116.25 59.686,99.5C59.599,82.684 66.36,67.421 77.333,56.334C88.351,45.201 103.616,38.281 120.5,38.193C137.385,38.28 152.651,45.198 163.67,56.33C174.646,67.418 181.408,82.682 181.324,99.5C181.243,116.253 174.38,131.401 163.339,142.339C158.848,146.788 153.66,150.528 147.97,153.418C146.647,154.09 145.296,154.716 143.918,155.293C138.522,157.571 132.723,159.077 126.662,159.689C124.636,159.895 122.58,160.001 120.5,160C117.927,160.001 115.393,159.84 112.904,159.526C106.093,158.674 99.632,156.691 93.723,153.758ZM143.918,155.293C145.293,154.714 146.642,154.083 147.963,153.404C153.629,150.491 158.763,146.688 163.205,142.204C174.067,131.24 180.756,116.138 180.676,99.5C180.593,82.927 173.799,67.943 162.873,57.127C151.991,46.355 137.007,39.722 120.5,39.807C103.993,39.721 89.007,46.352 78.123,57.124C67.195,67.94 60.399,82.925 60.314,99.5C60.232,116.141 66.922,131.247 77.784,142.216C81.119,145.584 84.843,148.571 88.897,151.076C90.459,152.042 92.069,152.937 93.723,153.758C99.641,156.678 106.096,158.67 112.904,159.526C115.393,159.838 117.928,159.999 120.5,160C122.58,159.999 124.636,159.894 126.662,159.689C132.721,159.074 138.515,157.559 143.918,155.293Z" style="fill:white;"/>
            </g>
        </g>
    </g>
</svg>
